<?xml version="1.0" encoding="UTF-8"?>
<svg version="1.1" xmlns="http://www.w3.org/2000/svg" width="216" height="205">
<path d="M0 0 C71.28 0 142.56 0 216 0 C216 67.65 216 135.3 216 205 C144.72 205 73.44 205 0 205 C0 137.35 0 69.7 0 0 Z " fill="#FDFDFD" transform="translate(0,0)"/>
<path d="M0 0 C2.57866282 0.6298701 3.70080431 1.22910257 5.5078125 3.14453125 C7.67703854 7.12144566 8.11234957 9.12374914 7.3828125 13.58203125 C5.5078125 16.51953125 5.5078125 16.51953125 3.3828125 18.58203125 C2.7228125 18.58203125 2.0628125 18.58203125 1.3828125 18.58203125 C1.3828125 22.21203125 1.3828125 25.84203125 1.3828125 29.58203125 C2.97150146 29.5663208 4.56019043 29.55061035 6.19702148 29.53442383 C12.1178679 29.47992943 18.03869234 29.44561003 23.9597168 29.41723633 C26.51737197 29.40219415 29.07500154 29.38175536 31.63256836 29.35571289 C35.31891213 29.31912921 39.00491341 29.30225857 42.69140625 29.2890625 C43.82613876 29.27357864 44.96087128 29.25809479 46.12998962 29.24214172 C55.58762131 29.24015824 64.36785351 30.76797801 71.3828125 37.58203125 C75.9460596 43.34016924 78.52796918 47.93758955 78.48046875 55.34765625 C78.47724609 56.23710938 78.47402344 57.1265625 78.47070312 58.04296875 C78.46232422 58.96335938 78.45394531 59.88375 78.4453125 60.83203125 C78.44080078 61.76789063 78.43628906 62.70375 78.43164062 63.66796875 C78.41988168 65.97272166 78.40344676 68.27734352 78.3828125 70.58203125 C79.1253125 70.69675781 79.8678125 70.81148438 80.6328125 70.9296875 C85.98606232 72.19956352 89.92293366 75.44836218 93.0078125 79.95703125 C95.64998315 84.88107656 97.30861093 88.92437415 96.3828125 94.58203125 C93.98038017 101.61859702 91.02886974 107.37455926 84.2578125 110.89453125 C80.72273345 112.58203125 80.72273345 112.58203125 78.3828125 112.58203125 C78.40601563 113.71640625 78.42921875 114.85078125 78.453125 116.01953125 C78.47190064 117.54035793 78.4900989 119.06119182 78.5078125 120.58203125 C78.52457031 121.32582031 78.54132813 122.06960937 78.55859375 122.8359375 C78.63783972 131.94922403 76.71096713 138.83571662 70.3828125 145.58203125 C64.43051374 150.94147157 58.83313566 153.93305449 50.63476562 153.6628418 C49.52500366 153.63429611 48.4152417 153.60575043 47.27185059 153.57633972 C45.48599548 153.52308281 45.48599548 153.52308281 43.6640625 153.46875 C41.09510139 153.43540853 38.52608321 153.40625368 35.95703125 153.38085938 C31.94200733 153.33961627 27.93358994 153.27128015 23.92041016 153.13305664 C4.58132324 152.50622671 -7.38128025 155.1195885 -22.32289124 167.70129395 C-25.89302063 170.62788875 -29.71314746 173.15465266 -33.5546875 175.70703125 C-34.77331986 176.54124112 -35.99097834 177.37687821 -37.20703125 178.21484375 C-37.77147949 178.59801758 -38.33592773 178.98119141 -38.91748047 179.37597656 C-40.10760459 180.22044843 -41.26653054 181.10983378 -42.39892578 182.03027344 C-42.98786621 182.49852539 -43.57680664 182.96677734 -44.18359375 183.44921875 C-44.69994385 183.88089355 -45.21629395 184.31256836 -45.74829102 184.75732422 C-47.6171875 185.58203125 -47.6171875 185.58203125 -53.6171875 184.58203125 C-53.6171875 174.02203125 -53.6171875 163.46203125 -53.6171875 152.58203125 C-56.2571875 152.58203125 -58.8971875 152.58203125 -61.6171875 152.58203125 C-69.20834869 151.61807427 -73.47110968 148.1535722 -78.6171875 142.58203125 C-83.81263814 135.87361971 -83.77625311 128.26347058 -83.6796875 120.14453125 C-83.67517578 119.41298828 -83.67066406 118.68144531 -83.66601562 117.92773438 C-83.65436898 116.14579706 -83.63643941 114.36390262 -83.6171875 112.58203125 C-84.35839844 112.46988281 -85.09960938 112.35773438 -85.86328125 112.2421875 C-90.91253043 111.03180011 -94.76347862 107.85398642 -98.01953125 103.86328125 C-101.55098774 97.93143974 -101.55503987 91.27260309 -100.6171875 84.58203125 C-98.51066877 78.3536225 -94.08918759 75.06918489 -88.703125 71.61328125 C-86.6171875 70.58203125 -86.6171875 70.58203125 -83.6171875 70.58203125 C-83.64039062 69.36386719 -83.66359375 68.14570312 -83.6875 66.890625 C-83.706271 65.26693326 -83.72446977 63.64323483 -83.7421875 62.01953125 C-83.75894531 61.21966797 -83.77570313 60.41980469 -83.79296875 59.59570312 C-83.85658479 51.80273846 -82.58408293 45.85600443 -77.6171875 39.58203125 C-70.31083281 32.29128843 -64.69056223 29.2400672 -54.24685669 29.24214172 C-53.03101898 29.25762558 -51.81518127 29.27310944 -50.5625 29.2890625 C-49.30581512 29.29330734 -48.04913025 29.29755219 -46.75436401 29.30192566 C-43.43003015 29.31584003 -40.1063252 29.34274501 -36.78216553 29.3760376 C-33.38347784 29.40684879 -29.98472491 29.42045447 -26.5859375 29.43554688 C-19.92949261 29.46858115 -13.27342606 29.52034669 -6.6171875 29.58203125 C-6.6171875 25.95203125 -6.6171875 22.32203125 -6.6171875 18.58203125 C-7.9371875 17.92203125 -9.2571875 17.26203125 -10.6171875 16.58203125 C-13.12969333 12.8132725 -13.14734836 11.05052991 -12.6171875 6.58203125 C-9.45467379 0.78408944 -6.57111743 -0.42172843 0 0 Z " fill="#FCFCFC" transform="translate(110.6171875,6.41796875)"/>
<path d="M0 0 C2.57866282 0.6298701 3.70080431 1.22910257 5.5078125 3.14453125 C7.67703854 7.12144566 8.11234957 9.12374914 7.3828125 13.58203125 C5.5078125 16.51953125 5.5078125 16.51953125 3.3828125 18.58203125 C2.7228125 18.58203125 2.0628125 18.58203125 1.3828125 18.58203125 C1.3828125 22.21203125 1.3828125 25.84203125 1.3828125 29.58203125 C2.97150146 29.5663208 4.56019043 29.55061035 6.19702148 29.53442383 C12.1178679 29.47992943 18.03869234 29.44561003 23.9597168 29.41723633 C26.51737197 29.40219415 29.07500154 29.38175536 31.63256836 29.35571289 C35.31891213 29.31912921 39.00491341 29.30225857 42.69140625 29.2890625 C43.82613876 29.27357864 44.96087128 29.25809479 46.12998962 29.24214172 C55.58762131 29.24015824 64.36785351 30.76797801 71.3828125 37.58203125 C75.9460596 43.34016924 78.52796918 47.93758955 78.48046875 55.34765625 C78.47724609 56.23710938 78.47402344 57.1265625 78.47070312 58.04296875 C78.46232422 58.96335938 78.45394531 59.88375 78.4453125 60.83203125 C78.44080078 61.76789063 78.43628906 62.70375 78.43164062 63.66796875 C78.41988168 65.97272166 78.40344676 68.27734352 78.3828125 70.58203125 C79.1253125 70.69675781 79.8678125 70.81148438 80.6328125 70.9296875 C85.98606232 72.19956352 89.92293366 75.44836218 93.0078125 79.95703125 C95.64998315 84.88107656 97.30861093 88.92437415 96.3828125 94.58203125 C93.98038017 101.61859702 91.02886974 107.37455926 84.2578125 110.89453125 C80.72273345 112.58203125 80.72273345 112.58203125 78.3828125 112.58203125 C78.40601563 113.71640625 78.42921875 114.85078125 78.453125 116.01953125 C78.47190064 117.54035793 78.4900989 119.06119182 78.5078125 120.58203125 C78.52457031 121.32582031 78.54132813 122.06960937 78.55859375 122.8359375 C78.63783972 131.94922403 76.71096713 138.83571662 70.3828125 145.58203125 C64.43051374 150.94147157 58.83313566 153.93305449 50.63476562 153.6628418 C49.52500366 153.63429611 48.4152417 153.60575043 47.27185059 153.57633972 C45.48599548 153.52308281 45.48599548 153.52308281 43.6640625 153.46875 C41.09510139 153.43540853 38.52608321 153.40625368 35.95703125 153.38085938 C31.94200733 153.33961627 27.93358994 153.27128015 23.92041016 153.13305664 C4.58132324 152.50622671 -7.38128025 155.1195885 -22.32289124 167.70129395 C-25.89302063 170.62788875 -29.71314746 173.15465266 -33.5546875 175.70703125 C-34.77331986 176.54124112 -35.99097834 177.37687821 -37.20703125 178.21484375 C-37.77147949 178.59801758 -38.33592773 178.98119141 -38.91748047 179.37597656 C-40.10760459 180.22044843 -41.26653054 181.10983378 -42.39892578 182.03027344 C-42.98786621 182.49852539 -43.57680664 182.96677734 -44.18359375 183.44921875 C-44.69994385 183.88089355 -45.21629395 184.31256836 -45.74829102 184.75732422 C-47.6171875 185.58203125 -47.6171875 185.58203125 -53.6171875 184.58203125 C-53.6171875 174.02203125 -53.6171875 163.46203125 -53.6171875 152.58203125 C-56.2571875 152.58203125 -58.8971875 152.58203125 -61.6171875 152.58203125 C-69.20834869 151.61807427 -73.47110968 148.1535722 -78.6171875 142.58203125 C-83.81263814 135.87361971 -83.77625311 128.26347058 -83.6796875 120.14453125 C-83.67517578 119.41298828 -83.67066406 118.68144531 -83.66601562 117.92773438 C-83.65436898 116.14579706 -83.63643941 114.36390262 -83.6171875 112.58203125 C-84.35839844 112.46988281 -85.09960938 112.35773438 -85.86328125 112.2421875 C-90.91253043 111.03180011 -94.76347862 107.85398642 -98.01953125 103.86328125 C-101.55098774 97.93143974 -101.55503987 91.27260309 -100.6171875 84.58203125 C-98.51066877 78.3536225 -94.08918759 75.06918489 -88.703125 71.61328125 C-86.6171875 70.58203125 -86.6171875 70.58203125 -83.6171875 70.58203125 C-83.64039062 69.36386719 -83.66359375 68.14570312 -83.6875 66.890625 C-83.706271 65.26693326 -83.72446977 63.64323483 -83.7421875 62.01953125 C-83.75894531 61.21966797 -83.77570313 60.41980469 -83.79296875 59.59570312 C-83.85658479 51.80273846 -82.58408293 45.85600443 -77.6171875 39.58203125 C-70.31083281 32.29128843 -64.69056223 29.2400672 -54.24685669 29.24214172 C-53.03101898 29.25762558 -51.81518127 29.27310944 -50.5625 29.2890625 C-49.30581512 29.29330734 -48.04913025 29.29755219 -46.75436401 29.30192566 C-43.43003015 29.31584003 -40.1063252 29.34274501 -36.78216553 29.3760376 C-33.38347784 29.40684879 -29.98472491 29.42045447 -26.5859375 29.43554688 C-19.92949261 29.46858115 -13.27342606 29.52034669 -6.6171875 29.58203125 C-6.6171875 25.95203125 -6.6171875 22.32203125 -6.6171875 18.58203125 C-7.9371875 17.92203125 -9.2571875 17.26203125 -10.6171875 16.58203125 C-13.12969333 12.8132725 -13.14734836 11.05052991 -12.6171875 6.58203125 C-9.45467379 0.78408944 -6.57111743 -0.42172843 0 0 Z M-71.9921875 44.95703125 C-72.47429687 45.50101563 -72.95640625 46.045 -73.453125 46.60546875 C-76.17685893 51.2303324 -75.76592815 56.93380209 -75.76245117 62.16040039 C-75.76580978 62.89451645 -75.7691684 63.62863251 -75.77262878 64.38499451 C-75.78207714 66.79574301 -75.78407846 69.20642167 -75.78515625 71.6171875 C-75.78837186 73.300573 -75.79173616 74.98395822 -75.79524231 76.66734314 C-75.80121738 80.18847298 -75.80308376 83.70957834 -75.80249023 87.23071289 C-75.80238842 91.73878621 -75.81606736 96.2467027 -75.83326244 100.75473881 C-75.8443855 104.22831442 -75.84640939 107.70185205 -75.84588051 111.17544365 C-75.84705913 112.83759542 -75.8514743 114.49974822 -75.85921288 116.1618824 C-75.86902386 118.48571908 -75.86613101 120.80921432 -75.86010742 123.13305664 C-75.86572693 123.81631012 -75.87134644 124.4995636 -75.87713623 125.20352173 C-75.83623569 131.42153344 -74.24154167 135.50947545 -70.0703125 140.16015625 C-64.15727169 145.94603489 -58.54715662 146.11092712 -50.53125 146.40625 C-47.6171875 146.58203125 -47.6171875 146.58203125 -46.6171875 147.58203125 C-46.45912219 149.50681938 -46.3660525 151.43702335 -46.30078125 153.3671875 C-46.25888672 154.53701172 -46.21699219 155.70683594 -46.17382812 156.91210938 C-46.13451172 158.14380859 -46.09519531 159.37550781 -46.0546875 160.64453125 C-46.01150391 161.88009766 -45.96832031 163.11566406 -45.92382812 164.38867188 C-45.81734552 167.4530046 -45.71533326 170.51742198 -45.6171875 173.58203125 C-38.09455211 168.85617944 -30.69534917 163.97855707 -23.3671875 158.95703125 C-22.42617187 158.31507813 -21.48515625 157.673125 -20.515625 157.01171875 C-14.8963829 153.20591807 -14.8963829 153.20591807 -9.66845703 148.89282227 C-4.33203356 145.10207934 2.03843175 145.9754212 8.3125 146.0859375 C9.67098863 146.08806116 11.02948519 146.08710663 12.38796997 146.08323669 C17.40298258 146.07497917 22.41727085 146.11630286 27.43200684 146.1661377 C31.6771101 146.20750551 35.9209126 146.22476264 40.16620255 146.2087841 C42.14090618 146.21088786 44.11547395 146.24803567 46.08981323 146.286026 C54.17059045 146.26327595 59.3198455 145.07545138 65.3828125 139.58203125 C69.97103851 134.64968829 70.53231105 130.80885289 70.52807617 124.28417969 C70.53143478 123.54396072 70.5347934 122.80374176 70.53825378 122.04109192 C70.54776081 119.59117966 70.54970701 117.14133581 70.55078125 114.69140625 C70.55399485 112.98610404 70.557359 111.28080211 70.56086731 109.57550049 C70.56685855 105.99775555 70.5687073 102.42003476 70.56811523 98.84228516 C70.56801381 94.26818398 70.58164598 89.6942387 70.59888744 85.12017441 C70.61003435 81.59589941 70.61203359 78.07166173 70.61150551 74.54737091 C70.61268234 72.86175247 70.61708739 71.17613296 70.62483788 69.49053192 C70.63468874 67.12606577 70.6317394 64.76193302 70.62573242 62.39746094 C70.63135193 61.70733414 70.63697144 61.01720734 70.64276123 60.3061676 C70.59295111 52.54960235 68.90370814 47.10292689 63.3828125 41.58203125 C57.27977441 37.15672378 52.27323683 37.0082641 44.8671875 37.06445312 C43.72648804 37.05744385 42.58578857 37.05043457 41.41052246 37.04321289 C37.65103601 37.02565051 33.89230621 37.03725032 30.1328125 37.05078125 C27.51399593 37.04808586 24.89518034 37.04420304 22.27636719 37.03918457 C16.79223479 37.03192083 11.30831832 37.04146213 5.82421875 37.06054688 C-0.5033308 37.08231347 -6.8303647 37.07526117 -13.15790176 37.05324125 C-19.26138356 37.03285655 -25.36463793 37.03507196 -31.46813965 37.04676819 C-34.05806552 37.04943385 -36.64800457 37.04617142 -39.23791504 37.03684998 C-42.85948392 37.02667555 -46.48006692 37.04220005 -50.1015625 37.06445312 C-51.1687854 37.0563562 -52.2360083 37.04825928 -53.33557129 37.03991699 C-61.18332708 37.12911414 -66.71534418 38.74726536 -71.9921875 44.95703125 Z " fill="#080808" transform="translate(110.6171875,6.41796875)"/>
<path d="M0 0 C4.18735832 0.46526204 8.16535958 1.03770587 12.25 2.0625 C23.57636496 4.37686559 36.49129228 4.20280726 47.4921875 0.65625 C50.40151988 -0.10507062 53.0054626 -0.10476516 56 0 C56.495 2.475 56.495 2.475 57 5 C50.13424121 12.11096446 37.60140748 12.88459511 28.1875 13.3125 C22.85718713 13.26060544 17.82111389 12.3489061 12.625 11.25 C11.4652063 11.01470581 11.4652063 11.01470581 10.28198242 10.7746582 C5.60557586 9.71334247 2.56867587 8.38384405 -1 5 C-0.67 3.35 -0.34 1.7 0 0 Z " fill="#0C0C0C" transform="translate(80,115)"/>
<path d="M0 0 C2.57866282 0.6298701 3.70080431 1.22910257 5.5078125 3.14453125 C7.67703854 7.12144566 8.11234957 9.12374914 7.3828125 13.58203125 C5.25643818 16.99941855 3.24053823 19.29612267 -0.6171875 20.58203125 C-3.33522711 21.08272276 -4.89122064 21.05373435 -7.234375 19.53125 C-10.88061721 16.57413012 -12.45366902 14.9991914 -12.9921875 10.33203125 C-12.61915032 6.60165947 -11.97892589 4.45547395 -9.375 1.6953125 C-6.34537534 -0.22344978 -3.51023028 -0.22528344 0 0 Z " fill="#060606" transform="translate(135.6171875,72.41796875)"/>
<path d="M0 0 C2.57866282 0.6298701 3.70080431 1.22910257 5.5078125 3.14453125 C7.67703854 7.12144566 8.11234957 9.12374914 7.3828125 13.58203125 C5.25643818 16.99941855 3.24053823 19.29612267 -0.6171875 20.58203125 C-3.33522711 21.08272276 -4.89122064 21.05373435 -7.234375 19.53125 C-10.88061721 16.57413012 -12.45366902 14.9991914 -12.9921875 10.33203125 C-12.61915032 6.60165947 -11.97892589 4.45547395 -9.375 1.6953125 C-6.34537534 -0.22344978 -3.51023028 -0.22528344 0 0 Z " fill="#060606" transform="translate(85.6171875,72.41796875)"/>
<path d="M0 0 C4.05171075 2.02585537 6.9474751 3.8949502 9 8 C9.62276048 12.31202511 9.93262226 16.32659234 7.765625 20.21484375 C6.25971137 22.03759565 4.90633371 23.59923898 3 25 C2.01 25 1.02 25 0 25 C0 16.75 0 8.5 0 0 Z " fill="#ECECEC" transform="translate(189,85)"/>
<path d="M0 0 C0 8.25 0 16.5 0 25 C-3.98955512 24.00261122 -5.51149675 23.14503193 -8.015625 19.9453125 C-9.95022218 16.12217998 -9.63778761 12.14561947 -9 8 C-7.34538624 4.11165766 -4.62390958 0 0 0 Z " fill="#ECECEC" transform="translate(27,85)"/>
</svg>
